# xmcd
#
# Track frame offsets: 
#        150
#        16787
#        31800
#        53564
#        70599
#        100514
#        118034
#        135492
#        154181
#        173629
#        189269
#        202771
#
# Disc length: 2914 seconds
#
# Revision: 0
# Processed by: cddbd v1.5.2PL0 Copyright (c) Steve Scherf et al.
# Submitted via: ExactAudioCopy v0.99pb5
#
DISCID=830b600c
DTITLE=Doobie Brothers - Greatest Hits and More [CD2]
DYEAR=1976
DGENRE=Rock
TTITLE0=Take Me In Your Arms (Rock Me)
TTITLE1=Natural Thing
TTITLE2=Road Angel
TTITLE3=Sweet Maxine
TTITLE4=I Cheat The Hangman
TTITLE5=Takin' It To The Streets
TTITLE6=Wheels Of Fortune
TTITLE7=Carry Me Away
TTITLE8=It Keeps You Runnin'
TTITLE9=Little Darling (I Need You)
TTITLE10=Echoes Of Love
TTITLE11=Don't Stop To Watch The Wheels
EXTD=
EXTT0=
EXTT1=
EXTT2=
EXTT3=
EXTT4=
EXTT5=
EXTT6=
EXTT7=
EXTT8=
EXTT9=
EXTT10=
EXTT11=
PLAYORDER=
